<mxfile host="app.diagrams.net" modified="2024-05-08T01:02:05.454Z" agent="Mozilla/5.0 (Windows NT 10.0; Win64; x64) AppleWebKit/537.36 (KHTML, like Gecko) Chrome/124.0.0.0 Safari/537.36 Edg/124.0.0.0" version="24.3.1" etag="0Jsqnc2n_PXFVIkZdwm7" type="github">
  <diagram name="第 1 页" id="n0Cx7UL-l8NaTyVHRnL3">
    <mxGraphModel>
      <root>
        <mxCell id="0" />
        <mxCell id="1" parent="0" />
      </root>
    </mxGraphModel>
  </diagram>
</mxfile>
